{"title":"Turtle-The Incredible Journey-AC3-5,1-DVDRip[Eng]2009","uid":5489384,"size":1355712749,"categoryP":"video","categoryS":"movies","magnet":"?xt=urn:btih:83f32dd47528bc5f236714f9b30a23d628d68fb5&amp;dn=Turtle-The+Incredible+Journey-AC3-5%2C1-DVDRip%5BEng%5D2009&amp;tr=udp%3A%2F%2Ftracker.openbittorrent.com%3A80&amp;tr=udp%3A%2F%2Fopen.demonii.com%3A1337&amp;tr=udp%3A%2F%2Ftracker.coppersurfer.tk%3A6969&amp;tr=udp%3A%2F%2Fexodus.desync.com%3A6969","seeders":2,"leechers":0,"uploader":"FatFreddy31","files":-1,"time":1270905709,"description":" &lt;a href=&quot;http://www.imdb.com/title/tt0970521/&quot; rel=&quot;nofollow&quot; target=&quot;_NEW&quot;&gt;http://www.imdb.com/title/tt0970521/&lt;/a&gt;\n\nUser Rating:7.1/10 - 34 votes\n\nDocumentary\n\nDirector:Nick Stringer\n\nNarrator (voice):Miranda Richardson\n\nPlot:\nA little loggerhead turtle follows in the path of her ancestors on one of the most extraordinary journeys in the natural world. Born on a beach in Florida, she rides the Gulf Stream all the way to the frozen north and ultimately swims around the entire North Atlantic to Africa and back to the beach where she was born...\n\nInfo:\n\nSubtitles: Dutch (srt)\n\nGeneral\nComplete name                    : Turtle-The Incredible Journey-AC3-5,1-DVDRip[Eng]2009.avi\nFormat                           : AVI\nFormat/Info                      : Audio Video Interleave\nFile size                        : 1.26 GiB\nDuration                         : 1h 13mn\nOverall bit rate                 : 2 463 Kbps\nWriting application              : VirtualDubMod 1.5.4.1 (build 2178/release)\nWriting library                  : VirtualDubMod build 2178/release\n\nVideo\nID                               : 0\nFormat                           : MPEG-4 Visual\nFormat profile                   : Simple@L3\nFormat settings, BVOP            : No\nFormat settings, QPel            : No\nFormat settings, GMC             : No warppoints\nFormat settings, Matrix          : Default (H.263)\nCodec ID                         : XVID\nCodec ID/Hint                    : XviD\nDuration                         : 1h 13mn\nBit rate                         : 2 005 Kbps\nWidth                            : 640 pixels\nHeight                           : 352 pixels\nDisplay aspect ratio             : 16:9\nFrame rate                       : 25.000 fps\nResolution                       : 24 bits\nColorimetry                      : 4:2:0\nScan type                        : Progressive\nBits/(Pixel*Frame)               : 0.356\nStream size                      : 1.03 GiB (81%)\nWriting library                  : XviD 1.1.2 (UTC 2006-11-01)\n\nAudio\nID                               : 1\nFormat                           : AC-3\nFormat/Info                      : Audio Coding 3\nCodec ID                         : 2000\nDuration                         : 1h 13mn\nBit rate mode                    : Constant\nBit rate                         : 448 Kbps\nChannel(s)                       : 6 channels\nChannel positions                : Front: L C R, Surround: L R, LFE\nSampling rate                    : 48.0 KHz\nStream size                      : 235 MiB (18%)\nAlignment                        : Split accross interleaves\nInterleave, duration             : 40 ms (1.00 video frame)\nInterleave, preload duration     : 500 ms\n\nEnjoy...\n\nGreetings to ZARCK, 2lions, and thanks to Illuminati for the source..","torrent":{"xt":"urn:btih:83f32dd47528bc5f236714f9b30a23d628d68fb5","amp;dn":"Turtle-The+Incredible+Journey-AC3-5%2C1-DVDRip%5BEng%5D2009","amp;tr":["udp%3A%2F%2Ftracker.openbittorrent.com%3A80","udp%3A%2F%2Fopen.demonii.com%3A1337","udp%3A%2F%2Ftracker.coppersurfer.tk%3A6969","udp%3A%2F%2Fexodus.desync.com%3A6969"],"infoHash":"83f32dd47528bc5f236714f9b30a23d628d68fb5","infoHashBuffer":{"type":"Buffer","data":[131,243,45,212,117,40,188,95,35,103,20,249,179,10,35,214,40,214,143,181]},"announce":[],"urlList":[]}}